<svg xmlns="http://www.w3.org/2000/svg" width="1600" height="900" viewBox="0 0 1600 900">
  <defs>
    <marker id="arrow" markerWidth="10" markerHeight="10" refX="9" refY="3" orient="auto" markerUnits="strokeWidth">
      <path d="M0,0 L0,6 L9,3 z" fill="#334155"/>
    </marker>
    <style>
      .title { font: 700 34px Arial, sans-serif; fill: #0f172a; }
      .subtitle { font: 400 18px Arial, sans-serif; fill: #475569; }
      .group-title { font: 700 18px Arial, sans-serif; fill: #0f172a; }
      .box-title { font: 700 18px Arial, sans-serif; fill: #0f172a; }
      .box-text { font: 400 14px Arial, sans-serif; fill: #475569; }
      .box { fill: #ffffff; stroke: #94a3b8; stroke-width: 2; rx: 12; }
      .browser { fill: #eff6ff; stroke: #60a5fa; stroke-width: 2; rx: 18; }
      .backend { fill: #f0fdf4; stroke: #22c55e; stroke-width: 2; rx: 18; }
      .data { fill: #fff7ed; stroke: #fb923c; stroke-width: 2; rx: 18; }
      .external { fill: #f8fafc; stroke: #64748b; stroke-width: 2; rx: 18; }
      .line { fill: none; stroke: #334155; stroke-width: 2.5; marker-end: url(#arrow); }
      .line-soft { fill: none; stroke: #64748b; stroke-width: 2; stroke-dasharray: 8 6; marker-end: url(#arrow); }
      .label { font: 600 13px Arial, sans-serif; fill: #334155; }
    </style>
  </defs>

  <rect width="1600" height="900" fill="#f8fafc"/>
  <text x="70" y="70" class="title">WHATS_AUTO - Arquitetura geral</text>
  <text x="70" y="102" class="subtitle">Mapa vetorial dos componentes principais e suas integrações</text>

  <rect x="70" y="150" width="340" height="280" class="browser"/>
  <text x="100" y="188" class="group-title">Navegador</text>
  <rect x="110" y="220" width="260" height="62" class="box"/>
  <text x="132" y="245" class="box-title">Vue SPA</text>
  <text x="132" y="267" class="box-text">Views, Router, UI</text>
  <rect x="110" y="305" width="260" height="62" class="box"/>
  <text x="132" y="330" class="box-title">Pinia Auth Store</text>
  <text x="132" y="352" class="box-text">Token, usuário, empresa</text>

  <rect x="510" y="140" width="500" height="450" class="backend"/>
  <text x="540" y="178" class="group-title">Backend Node.js</text>
  <rect x="560" y="215" width="170" height="58" class="box"/>
  <text x="582" y="240" class="box-title">Express App</text>
  <text x="582" y="260" class="box-text">Middlewares</text>
  <rect x="790" y="215" width="170" height="58" class="box"/>
  <text x="812" y="240" class="box-title">Routes</text>
  <text x="812" y="260" class="box-text">/api/*</text>
  <rect x="560" y="315" width="170" height="58" class="box"/>
  <text x="582" y="340" class="box-title">Controllers</text>
  <text x="582" y="360" class="box-text">HTTP boundary</text>
  <rect x="790" y="315" width="170" height="58" class="box"/>
  <text x="812" y="340" class="box-title">Services</text>
  <text x="812" y="360" class="box-text">Regras gerais</text>
  <rect x="560" y="415" width="170" height="58" class="box"/>
  <text x="582" y="440" class="box-title">Chatbot App</text>
  <text x="582" y="460" class="box-text">Inbound/outbound</text>
  <rect x="790" y="415" width="170" height="58" class="box"/>
  <text x="812" y="440" class="box-title">Socket.IO</text>
  <text x="812" y="460" class="box-text">Realtime</text>
  <rect x="675" y="515" width="170" height="58" class="box"/>
  <text x="697" y="540" class="box-title">Sequelize</text>
  <text x="697" y="560" class="box-text">Models/repos</text>

  <rect x="1100" y="150" width="340" height="260" class="data"/>
  <text x="1130" y="188" class="group-title">Dados</text>
  <rect x="1140" y="225" width="260" height="62" class="box"/>
  <text x="1162" y="250" class="box-title">MariaDB</text>
  <text x="1162" y="272" class="box-text">Aplicação principal</text>
  <rect x="1140" y="310" width="260" height="62" class="box"/>
  <text x="1162" y="335" class="box-title">PostgreSQL</text>
  <text x="1162" y="357" class="box-text">Banco da Evolution API</text>

  <rect x="1090" y="490" width="360" height="250" class="external"/>
  <text x="1120" y="528" class="group-title">Integrações</text>
  <rect x="1130" y="560" width="280" height="50" class="box"/>
  <text x="1152" y="591" class="box-title">Evolution API</text>
  <rect x="1130" y="625" width="130" height="50" class="box"/>
  <text x="1160" y="656" class="box-title">n8n</text>
  <rect x="1280" y="625" width="130" height="50" class="box"/>
  <text x="1300" y="656" class="box-title">Typebot</text>

  <path d="M370 250 C430 250 470 244 560 244" class="line"/>
  <text x="418" y="232" class="label">HTTP /api</text>
  <path d="M370 336 C470 336 675 444 790 444" class="line-soft"/>
  <text x="430" y="382" class="label">Socket.IO</text>
  <path d="M730 244 L790 244" class="line"/>
  <path d="M875 273 L875 315" class="line"/>
  <path d="M790 344 L730 344" class="line"/>
  <path d="M645 373 L645 415" class="line"/>
  <path d="M645 473 C660 500 700 515 760 515" class="line"/>
  <path d="M875 373 L875 415" class="line"/>
  <path d="M845 544 C965 544 1040 256 1140 256" class="line"/>
  <path d="M960 344 C1040 360 1050 585 1130 585" class="line"/>
  <path d="M645 415 C810 380 1020 560 1130 585" class="line"/>
  <path d="M1130 585 C1080 520 1020 470 960 444" class="line-soft"/>
  <text x="1035" y="510" class="label">webhook inbound</text>
  <path d="M1270 560 L1270 372" class="line"/>
  <path d="M960 444 C1030 490 1080 650 1130 650" class="line-soft"/>
  <path d="M960 444 C1090 450 1200 650 1280 650" class="line-soft"/>
</svg>
